<svg width="71" height="70" viewBox="0 0 71 70" fill="none" xmlns="http://www.w3.org/2000/svg">
<g id="facebook 1">
<path id="Vector" fill-rule="evenodd" clip-rule="evenodd" d="M35.1384 1.15918C41.4394 1.23108 47.1318 2.77968 52.2155 5.80498C57.2385 8.76988 61.4169 12.9739 64.3512 18.0149C67.3581 23.1292 68.8973 28.856 68.969 35.1954C68.7904 43.8692 66.0546 51.2774 60.7616 57.4202C55.4686 63.5629 48.6896 67.3632 41.6719 68.82V44.5014H48.3065L49.8069 34.9448H39.7606V28.6854C39.7048 27.3878 40.1152 26.1131 40.9175 25.0917C41.7209 24.0675 43.1357 23.5292 45.1619 23.4768H51.2286V15.1054C51.1415 15.0774 50.3156 14.9667 48.7507 14.7732C46.9759 14.5655 45.1912 14.4546 43.4044 14.4409C39.3603 14.4596 36.162 15.6004 33.8094 17.8632C31.4568 20.1254 30.255 23.3984 30.204 27.6821V34.9448H22.5587V44.5014H30.204V68.82C21.5874 67.3632 14.8083 63.5629 9.51525 57.4202C4.22224 51.2774 1.48658 43.8692 1.30798 35.1954C1.37944 28.8557 2.91868 23.1289 5.9257 18.0149C8.85996 12.9739 13.0384 8.76988 18.0615 5.80498C23.145 2.78026 28.8373 1.23166 35.1384 1.15918V1.15918Z" fill="#363636"/>
</g>
</svg>
