<svg width="71" height="70" viewBox="0 0 71 70" fill="none" xmlns="http://www.w3.org/2000/svg">
<g id="hamburger 1">
<path id="Vector" d="M10.5937 20.4877C9.78944 20.4877 9.13745 19.8357 9.13745 19.0314C9.13745 18.2272 9.78944 17.5752 10.5937 17.5752H60.1062C60.9103 17.5752 61.5625 18.2272 61.5625 19.0314C61.5625 19.8357 60.9103 20.4877 60.1062 20.4877H10.5937ZM10.5937 35.0502C9.78944 35.0502 9.13745 34.3981 9.13745 33.5939C9.13745 32.7898 9.78944 32.1377 10.5937 32.1377H60.1062C60.9103 32.1377 61.5625 32.7898 61.5625 33.5939C61.5625 34.3981 60.9103 35.0502 60.1062 35.0502H10.5937ZM10.5937 49.6127C9.78944 49.6127 9.13745 48.9606 9.13745 48.1564C9.13745 47.3523 9.78944 46.7002 10.5937 46.7002H60.1062C60.9103 46.7002 61.5625 47.3523 61.5625 48.1564C61.5625 48.9606 60.9103 49.6127 60.1062 49.6127H10.5937Z" fill="#55281D"/>
</g>
</svg>
