<svg width="71" height="70" viewBox="0 0 71 70" fill="none" xmlns="http://www.w3.org/2000/svg">
<g id="instagram 1" clip-path="url(#clip0_9_322)">
<path id="Vector" d="M35.8379 70.0001C35.6064 70.0001 35.375 70.0001 35.1419 69.9991C29.6629 70.0124 24.6003 69.8732 19.6769 69.5735C15.1631 69.2989 11.0429 67.739 7.761 65.0629C4.5943 62.4807 2.43179 58.9892 1.33374 54.6866C0.378072 50.9407 0.327409 47.2637 0.278879 43.7071C0.243681 41.1553 0.207417 38.1315 0.199951 35.0565C0.207417 31.9688 0.243681 28.945 0.278879 26.3932C0.327409 22.8372 0.378072 19.1601 1.33374 15.4137C2.43179 11.1111 4.5943 7.6196 7.761 5.03739C11.0429 2.36131 15.1631 0.801428 19.6775 0.526781C24.6008 0.227603 29.6645 0.0878799 35.1553 0.101212C40.6359 0.0894798 45.6969 0.227603 50.6203 0.526781C55.1341 0.801428 59.2543 2.36131 62.5362 5.03739C65.7035 7.6196 67.8654 11.1111 68.9635 15.4137C69.9192 19.1596 69.9698 22.8372 70.0183 26.3932C70.0535 28.945 70.0903 31.9688 70.0973 35.0437V35.0565C70.0903 38.1315 70.0535 41.1553 70.0183 43.7071C69.9698 47.2631 69.9197 50.9402 68.9635 54.6866C67.8654 58.9892 65.7035 62.4807 62.5362 65.0629C59.2543 67.739 55.1341 69.2989 50.6203 69.5735C45.9054 69.8604 41.0621 70.0001 35.8379 70.0001V70.0001ZM35.1419 64.5381C40.532 64.5509 45.4809 64.4149 50.2886 64.1227C53.7017 63.9152 56.6609 62.8076 59.0853 60.8307C61.3262 59.0031 62.8695 56.4816 63.6721 53.3363C64.4678 50.2181 64.5137 46.8701 64.5579 43.6325C64.5926 41.0977 64.6289 38.0953 64.6363 35.0501C64.6289 32.0045 64.5926 29.0026 64.5579 26.4678C64.5137 23.2302 64.4678 19.8822 63.6721 16.7635C62.8695 13.6181 61.3262 11.0967 59.0853 9.26908C56.6609 7.29269 53.7017 6.18504 50.2886 5.97759C45.4809 5.68481 40.532 5.54988 35.1547 5.56162C29.7658 5.54882 24.8163 5.68481 20.0086 5.97759C16.5956 6.18504 13.6363 7.29269 11.212 9.26908C8.97105 11.0967 7.42769 13.6181 6.62508 16.7635C5.82941 19.8822 5.78355 23.2297 5.73928 26.4678C5.70462 29.0047 5.66835 32.0088 5.66089 35.0565C5.66835 38.091 5.70462 41.0956 5.73928 43.6325C5.78355 46.8701 5.82941 50.2181 6.62508 53.3363C7.42769 56.4816 8.97105 59.0031 11.212 60.8307C13.6363 62.8071 16.5956 63.9147 20.0086 64.1222C24.8163 64.4149 29.7669 64.5515 35.1419 64.5381V64.5381ZM35.0118 52.1156C25.6024 52.1156 17.9464 44.4601 17.9464 35.0501C17.9464 25.6402 25.6024 17.9847 35.0118 17.9847C44.4218 17.9847 52.0773 25.6402 52.0773 35.0501C52.0773 44.4601 44.4218 52.1156 35.0118 52.1156V52.1156ZM35.0118 23.4457C28.6134 23.4457 23.4073 28.6517 23.4073 35.0501C23.4073 41.4486 28.6134 46.6546 35.0118 46.6546C41.4108 46.6546 46.6163 41.4486 46.6163 35.0501C46.6163 28.6517 41.4108 23.4457 35.0118 23.4457V23.4457ZM53.9886 12.5238C51.7269 12.5238 49.8929 14.3572 49.8929 16.6195C49.8929 18.8817 51.7269 20.7152 53.9886 20.7152C56.2508 20.7152 58.0843 18.8817 58.0843 16.6195C58.0843 14.3572 56.2508 12.5238 53.9886 12.5238Z" fill="#363636"/>
</g>
<defs>
<clipPath id="clip0_9_322">
<rect width="69.9" height="69.9" fill="white" transform="translate(0.199951 0.100098)"/>
</clipPath>
</defs>
</svg>
