<svg width="16" height="18" viewBox="0 0 16 18" fill="none" xmlns="http://www.w3.org/2000/svg">
<g id="Group 10">
<path id="Vector" d="M7.53284 10.0657C7.86545 10.0657 8.19481 10.0002 8.50211 9.87287C8.80941 9.74559 9.08863 9.55902 9.32382 9.32382C9.55902 9.08863 9.74559 8.80941 9.87287 8.50211C10.0002 8.19481 10.0657 7.86545 10.0657 7.53284C10.0657 7.20022 10.0002 6.87086 9.87287 6.56356C9.74559 6.25626 9.55902 5.97705 9.32382 5.74185C9.08863 5.50665 8.80941 5.32009 8.50211 5.1928C8.19481 5.06551 7.86545 5 7.53284 5C6.86109 5 6.21685 5.26685 5.74185 5.74185C5.26685 6.21685 5 6.86109 5 7.53284C5 8.20459 5.26685 8.84882 5.74185 9.32382C6.21685 9.79882 6.86109 10.0657 7.53284 10.0657Z" stroke="#EA9432"/>
<path id="Vector_2" d="M1.19707 6.26863C2.79633 -0.761619 13.2118 -0.753501 14.803 6.27675C15.7365 10.4007 13.1712 13.8915 10.9225 16.0509C10.1367 16.8088 9.08763 17.2322 7.99595 17.2322C6.90427 17.2322 5.85516 16.8088 5.06939 16.0509C2.8288 13.8915 0.263493 10.3926 1.19707 6.26863Z" stroke="#EA9432"/>
</g>
</svg>
