<svg width="71" height="70" viewBox="0 0 71 70" fill="none" xmlns="http://www.w3.org/2000/svg">
<g id="location 1" clip-path="url(#clip0_9_303)">
<g id="Group">
<path id="Vector" d="M10.5757 24.5742C10.5757 36.7133 19.843 49.8835 28.0204 61.2646C29.9642 63.9685 31.8261 66.5582 33.446 68.988C33.8259 69.558 34.4659 69.9 35.1498 69.9C35.8336 69.9 36.4736 69.558 36.8536 68.988C38.4734 66.5582 40.3353 63.9683 42.2792 61.2646C50.4568 49.8835 59.7241 36.7133 59.7241 24.5742C59.7241 11.0232 48.7009 0 35.1499 0C21.5989 0 10.5757 11.0232 10.5757 24.5742ZM47.437 24.5742C47.437 31.3497 41.9254 36.8613 35.1499 36.8613C28.3744 36.8613 22.8628 31.3497 22.8628 24.5742C22.8628 17.7987 28.3744 12.2871 35.1499 12.2871C41.9254 12.2871 47.437 17.7987 47.437 24.5742Z" fill="#1C1C1C"/>
<path id="Vector_2" d="M35.1499 32.7656C39.6739 32.7656 43.3413 29.0982 43.3413 24.5742C43.3413 20.0502 39.6739 16.3828 35.1499 16.3828C30.6259 16.3828 26.9585 20.0502 26.9585 24.5742C26.9585 29.0982 30.6259 32.7656 35.1499 32.7656Z" fill="#1C1C1C"/>
</g>
</g>
<defs>
<clipPath id="clip0_9_303">
<rect width="69.9" height="69.9" fill="white" transform="translate(0.199951)"/>
</clipPath>
</defs>
</svg>
