<svg width="70" height="70" viewBox="0 0 70 70" fill="none" xmlns="http://www.w3.org/2000/svg">
<g id="pinterest 1">
<g id="_x31_4.Pinterest">
<g id="Group">
<g id="Icon_9_">
<path id="Vector" d="M63.0098 35.8889C63.4292 19.8818 50.5676 6.88045 34.6304 7.09015C19.3223 7.29985 6.95 19.9517 7.0898 35.2598C7.1597 46.2341 13.5905 55.6706 22.8173 60.2141C23.3765 60.4937 24.0056 60.0744 23.9357 59.4453C23.8658 57.6279 23.9357 55.7406 24.2852 54.2028C24.6347 52.665 26.0327 46.7933 26.9414 42.9488C27.3608 41.0615 27.4307 39.1043 27.0812 37.217C26.9414 36.5879 26.8715 35.8889 26.8715 35.0501C26.8715 30.926 29.2481 27.8504 32.2538 27.8504C34.7702 27.8504 36.0284 29.7377 36.0284 32.0444C36.0284 34.5608 34.4207 38.4053 33.5819 41.9702C32.8829 44.906 35.0498 47.3525 37.9856 47.3525C43.298 47.3525 47.3522 41.7605 47.3522 33.722C47.3522 26.5922 42.2495 21.6293 34.91 21.6293C26.4521 21.6293 21.4892 27.9902 21.4892 34.5608C21.4892 37.1471 22.4678 39.8732 23.726 41.3411C23.9357 41.6207 24.0056 41.9003 23.9357 42.1799C23.726 43.0886 23.2367 45.1157 23.0969 45.5351C22.9571 46.0943 22.6775 46.1642 22.1183 45.9545C18.4136 44.1371 16.037 38.6849 16.037 34.3511C16.037 24.9845 22.8173 16.3868 35.6789 16.3868C45.9542 16.3868 53.9927 23.7263 53.9927 33.5822C53.9927 43.8575 47.5619 52.0358 38.5448 52.0358C36.1682 52.0358 33.9314 51.0572 32.6033 49.7291C32.1839 49.3097 31.4849 49.5194 31.3451 50.0786C30.8558 51.8261 30.1568 54.7619 29.8772 55.6706C29.4578 57.3482 28.5491 59.3054 27.5705 61.0529C27.2909 61.4723 27.5705 62.1015 28.0598 62.1714C30.3665 62.7306 32.7431 63.08 35.1896 63.0101C50.0084 62.8703 62.5904 50.5679 63.0098 35.8889Z" fill="#1C1C1C"/>
</g>
</g>
</g>
</g>
</svg>
