<svg width="70" height="70" viewBox="0 0 70 70" fill="none" xmlns="http://www.w3.org/2000/svg">
<g id="twitter 1">
<path id="_x30_4.Twitter" d="M62.84 17.7148C60.743 18.6235 58.5761 19.2526 56.2694 19.5322C58.646 18.1342 60.4634 15.8974 61.3022 13.1713C59.0654 14.4994 56.6189 15.4081 54.0326 15.9673C51.9356 13.7305 48.9299 12.3325 45.6446 12.3325C39.2837 12.3325 34.181 17.5051 34.181 23.7961C34.181 24.7048 34.2509 25.5436 34.4606 26.3824C24.9542 25.963 16.5662 21.3496 10.9043 14.4295C6.85014 21.6991 11.3936 27.7105 14.3993 29.7376C12.5819 29.7376 10.7645 29.1784 9.22674 28.3396C9.22674 34.0015 13.211 38.6848 18.3836 39.7333C17.2652 40.0828 14.7488 40.2925 13.211 39.943C14.6789 44.4865 18.9428 47.8417 23.9057 47.9116C19.9913 50.9872 14.2595 53.4337 6.92004 52.6648C12.0227 55.9501 18.0341 57.8374 24.5348 57.8374C45.6446 57.8374 57.1082 40.3624 57.1082 25.264C57.1082 24.7747 57.1082 24.2854 57.0383 23.7961C59.4149 22.0486 61.3721 20.0215 62.84 17.7148V17.7148Z" fill="#1C1C1C"/>
</g>
</svg>
